<svg id="Calque_1" data-name="Calque 1" xmlns="http://www.w3.org/2000/svg" viewBox="0 0 378.34 340"><defs><style>.cls-1{fill:none;}</style></defs><title>logo</title><path d="M241.33,257.47c-.9-2.91-2.63-8.27-3.74-12.85h-.19c.11,4.44.25,10,.25,12.84v65.84H216V231.94h38l7.25,22.16c.9,2.91,2.63,8.27,3.74,12.85h.19c-.11-4.44-.25-10-.25-12.84V231.94h21.6v91.35H262.8Z"/><path d="M325.19,236.95c-1,2.83-2.75,8.24-3.86,12.83h-.19c.11-4.44.3-10,.3-12.83v-5H297.37v91.35h24.08V271.17c0-2.8-.2-8.39-.31-12.83h.19a131.49,131.49,0,0,0,4.18,12.83l19,52.14h26.21l-28-70.49,25.83-67.66h-26Z"/><polygon points="159.58 323.29 163.15 300.35 185.44 300.35 189 323.29 213.13 323.29 196.98 231.94 174.82 231.94 182.19 279.43 166.4 279.43 173.77 231.94 151.61 231.94 135.71 321.87 135.71 300.35 109.27 300.35 109.27 231.94 85.19 231.94 85.19 323.29 159.58 323.29"/><path d="M144.2,50.36c0-7.74,2.87-13.3,10.46-13.3s10.46,5.56,10.46,13.3l.06,12.33h24.08l-.06-12.1c-.11-20.18-12.11-36-34.54-36s-34.54,16-34.54,36v48H144.2Z"/><rect x="155.05" y="79.81" width="34.14" height="18.74"/><rect x="85.19" y="16.55" width="24.08" height="82"/><path d="M41.49,134.36H34.09V92.92h7.41c5,0,8.53,1.83,10.73,5.63H77.41C74.93,90.66,69.92,86,61.67,82.26v-.37C72.4,76.45,77.11,65.11,77.11,50.94c0-24.5-13.93-34.4-36.61-34.4H10V154.69H42.47l1.19,0V134.23A17.37,17.37,0,0,1,41.49,134.36ZM34.09,36.88h5.43C48.33,36.88,53,42.26,53,54.82c0,12.71-4.3,19.55-13.51,19.55H34.09Z"/><path d="M39.52,243H34.09v-37.5h5.43a16.7,16.7,0,0,1,4.14.48V185.23c-1,0-2.09-.07-3.16-.07H10V323.29H42.47c25.54,0,36.86-15.8,36.86-40.52,0-18.34-5-26.17-17.67-31.91v-.37c7.37-3.73,11.9-10.24,14-18.54H52.19C50.53,239.16,46.39,243,39.52,243Zm2,60H34.09V261.52h7.41c9.52,0,13.63,6.56,13.63,20.72C55.12,295.16,51.68,303,41.49,303Z"/><rect class="cls-1" x="-72" y="-65.46" width="522.67" height="470.75"/></svg>